<?xml version="1.0" encoding="utf-8"?>
<!-- Generator: Adobe Illustrator 24.1.0, SVG Export Plug-In . SVG Version: 6.00 Build 0)  -->
<svg version="1.1" id="Layer_2" xmlns="http://www.w3.org/2000/svg" xmlns:xlink="http://www.w3.org/1999/xlink" x="0px" y="0px"
	 viewBox="0 0 72 72" style="enable-background:new 0 0 72 72;" xml:space="preserve">
<path d="M28.5,30.3c0,0.1-0.1,0.2-0.1,0.2c-0.1,0.1-0.1,0.3-0.2,0.4l-0.1,0c-0.6,0.9-1.9,2.4-3.7,3.3c-1.4,0.7-2.9,1-4.5,1
	c-1.1,0-2.3-0.1-3.3-0.5c-3.1-1-5.1-2.9-5.8-5.8c0,0,0-0.1-0.1-0.2c-0.4-1.1-0.6-2.4-0.4-3.9c0.3-2.3,1.4-4.3,3.2-5.9
	c1.2-1.1,2.7-1.7,4.2-2c0.7-0.1,1.4-0.2,2.1-0.2c1.6,0,3.2,0.3,4.6,0.9c0.7,0.3,1.3,0.6,2,1.1c0.6,0.5,1.3,1,1.7,1.6
	c0.3,0.5,0.3,0.5,0,0.8c-0.2,0.2-0.8,0.8-1.1,1c-0.4,0.4-1.3,1.1-1.6,1.4c-0.3,0.3-0.8-0.5-1-0.6c-0.7-0.8-1.5-1.3-2.5-1.7
	c-2.4-1-5.7-0.1-7,2.2c-1,1.9-0.8,4.2,0.6,5.8c1.7,1.9,4.7,2.4,7,1.2c0.9-0.5,1.6-1.4,2.2-2.2c0.3-0.3,0.4-0.2,0.8,0
	c0.3,0.1,0.6,0.3,0.8,0.4c0.4,0.2,1.4,0.7,1.8,0.9C28.7,29.8,28.5,30.3,28.5,30.3z"/>
<path d="M34.5,23.9l0,1c0,0.2,0,1.2,0,2.4c0,1.7,0,3.9,0,4.3l0,0c0,0.5,0,0.7,0,1.1l0,0.1c0,0.1,0,0.2,0,0.3c0,0.3,0,1.1,0,1.4
	c0,0.3,0,0.4-0.3,0.4c-0.1,0-1.1,0-1.2,0l-0.2,0c-0.1,0-0.2,0-0.4,0c-0.2,0-0.3,0-0.5,0c-0.2,0-1.1,0-1.3,0c-0.2,0-0.2,0-0.2-0.8
	c0-0.1,0-0.2,0-0.3c0-0.7,0-9.7,0-9.8c0-0.5-0.1-0.9,0.2-0.9c0,0,3.4,0,3.5,0C34.5,23.2,34.5,23.3,34.5,23.9z M30.3,18.1
	c0-0.4-0.1-1,0.2-1c0.2,0,1.1,0,1.4,0c0.4,0,2.1,0,2.2,0c0.3,0,0.3,0.3,0.3,0.8c0,0.2,0,0.5,0,0.7c0,0.5,0,1.1,0,1.6
	c0,1-0.1,1.2-0.3,1.2c-0.2,0-0.9,0-1,0c-0.1,0-1.2,0-1.6,0c-0.1,0-1,0-1.1,0c-0.2,0-0.1-0.3-0.1-0.8C30.3,20.1,30.3,18.8,30.3,18.1z
	"/>
<path d="M49,34.9c-0.3,0-0.6,0-1,0c-0.4,0-1,0-1.4,0h0c-0.2,0-0.2,0-0.4,0c-0.3,0-0.4,0.1-0.6-0.3c0,0-0.2-0.8-0.2-0.8
	c-0.8,0.9-1.6,1.3-2.2,1.4c-0.7,0.1-1.3,0.1-1.9,0.1c-0.7,0-1.7-0.1-2.4-0.3c-0.7-0.3-1.3-0.6-1.8-1.1c-0.5-0.5-0.7-1.1-0.8-1.9
	c-0.1-1.1,0.2-2.4,1-3.2c0.7-0.7,1.5-1.1,2.5-1.3c0.6-0.1,1.3-0.2,2-0.2c1.7,0,2.8,0.3,3.6,1c0-0.1,0-0.6,0-0.6
	c0-0.3-0.1-0.6-0.3-0.8c-1.2-1.3-4.5-1.2-5.5-0.2c0,0-0.1,0.1-0.2,0.2c-0.1,0.1-0.3,0.1-0.4,0c-0.4-0.4-1.4-1.4-1.7-1.8
	c-0.2-0.2,0.9-1.3,2.7-1.9c0.1,0,0.3-0.1,0.4-0.1c1.2-0.3,2.9-0.4,4.2-0.1c1.4,0.3,2.5,0.8,3.4,1.7c0.8,0.7,1.3,1.9,1.3,3.1
	c0,2.1,0,3.6,0,5.9C49.3,34.1,49.4,34.9,49,34.9z M45.3,30.9c0-0.1-0.1-0.3-0.2-0.4c-0.2-0.3-0.9-0.4-1.3-0.4c-0.2,0-0.4,0-0.6,0
	c-0.5,0-0.6,0-1,0c-0.9,0-1.2,0.4-1.3,0.5c-0.2,0.2-0.2,0.7-0.1,1c0.2,0.5,0.6,0.9,2.2,0.9c0.3,0,0.9,0,1.3-0.1
	c0.4-0.1,1.1-0.3,1.1-1.1V30.9z"/>
<path d="M64.2,34.7c0,0.2-0.1,0.3-0.6,0.3H63h-3c-0.2,0-0.1-0.7-0.1-1l0-0.1c0-0.2,0-0.3,0-0.5c0-0.1,0-0.1,0-0.2c0-1.4,0-2.5,0-3.9
	l0-0.7c0-1.6-0.8-2.2-2-2.2c-1.5,0-2.2,1.4-2.2,2.6c0,0.4,0,1.1,0,1.6c0,1.1,0,0.8,0,1.8l0-0.1c0,0.4,0,1.6,0,2c0,0.5,0,0.5-0.4,0.5
	c-0.1,0-1,0-1.1,0c-0.3,0-1.2,0-1.6,0c-0.2,0-0.7,0-0.7,0c-0.4,0-0.4-0.1-0.4-0.3c0-0.1,0-10.2,0-10.2c0-0.2,0-0.7,0-1.1
	c0-0.1,0.1-0.2,0.2-0.2c0.7,0,3.3,0,3.3,0c0.2,0,0.2,1.1,0.3,2.1c0.8-1.6,2.1-2.5,4.2-2.5c3.1,0,4.6,2.3,4.6,4.9c0,0.9,0,4.5,0,5.3
	l0,0.3C64.2,33.6,64.2,34.5,64.2,34.7z"/>
<path d="M28.3,50.5c-0.1,0.8-0.3,1.5-0.5,2.3c-0.2,0.6-0.5,1.2-0.9,1.7c-0.2,0.3-0.5,0.6-0.7,0.9c-0.1,0.1-0.2,0.2-0.3,0.3
	c-0.4,0.5-1.2,1.1-1.8,1.4c-0.6,0.3-2.6,0.7-3.4,0.8c-0.8,0-1.5,0-2.3,0c-0.8,0-0.9,0-1.7,0c-0.8,0-1.5,0-2.3,0c-0.3,0-1,0-1.8,0
	c-0.8,0-1.6,0-2,0h-0.3l-0.1-0.3c0-0.1,0-0.3,0-0.6c0,0,0-0.1,0-0.1c0-0.2,0-0.4,0-0.6c0-0.1,0-0.2,0-0.3c0-0.1,0-0.2,0-0.3
	c0-0.3-0.1-3.5-0.1-5.1c0-0.3,0-0.7,0-1c0-0.2,0-7.1,0-8.1c0-0.5,0-1.4,0.1-1.4c0.7,0,2.6,0,3.4,0c0.8,0,1.2,0,2,0
	c0.1,0,0.3,0,0.5,0c0.2,0,0.5,0,0.6,0l0,0c1.4,0,1.5,0,2.9,0l0,0c1,0,2.2,0.1,3.2,0.4c1.2,0.4,2.2,1.2,3,2.1
	c0.1,0.1,0.2,0.2,0.3,0.4c0.1,0.1,0.1,0.2,0.2,0.3c0.4,0.6,0.7,1.2,1,1.9c0.5,1.1,0.7,2.3,0.8,3.5C28.4,49.3,28.3,49.9,28.3,50.5z
	 M23.9,48.8c0-0.9-0.4-1.8-0.9-2.8c-0.3-0.5-1-1.3-1.5-1.6c0,0-1.1-0.5-2-0.5c-1.4,0-4.6-0.1-4.8,0c0,0.1,0,0.3,0,0.5
	c0,0.4,0,0.6,0,1c0,0.8,0,1.8,0,2.6c-0.1,1.9,0,4.2,0,5.9c0,0,0,0.1,0,0.1c0.5,0,4.1,0,4.1,0c0.4,0,0.8,0,1.2,0l0.3,0
	c1.1-0.1,1.7-0.3,2.4-1.1C23.6,51.7,24,50.3,23.9,48.8z"/>
<path d="M42.3,55.4c0.2,0.2-0.4,0.6-0.6,0.8c-1.2,1.2-2.4,1.6-3.9,1.9c-0.4,0.1-1,0.1-1.5,0.1c-1.5,0-2.9-0.4-4-1.2
	c-1.4-1-2.4-2.4-2.5-4.3c-0.1-1.5,0.2-3,0.9-4.1c0.4-0.7,1-1.3,1.7-1.7c0.7-0.5,1.7-0.8,2.8-1c0.7-0.1,1.5-0.1,2.1,0
	c1.9,0.3,3.5,1.2,4.4,2.6c0.6,1,0.9,1.8,0.9,3.3c0,1-0.1,1.3-0.4,1.3c-0.7,0-7.4,0-7.9,0c-0.1,0-0.2,0-0.3,0l0,0c-0.1,0-0.2,0-0.2,0
	c0.1,0.7,0.5,1,0.8,1.3c0.8,0.7,2.5,0.8,3.3,0.5c0.4-0.2,1-0.4,1.4-0.7c0.1-0.1,0.5-0.4,0.6-0.5c0.1-0.1,0.2,0.1,0.5,0.2
	c0.6,0.3,0.8,0.7,1.3,1.1L42.3,55.4z M33.7,50.4c1.2,0,3.9,0,4.9,0c-0.2-0.9-1-1.5-2.5-1.5C34.8,48.9,33.8,49.7,33.7,50.4z"/>
<path d="M57.2,52.8c0.8,1.5,0.1,3.3-0.8,4.2c-0.6,0.6-1.4,0.8-2.2,1c-0.9,0.3-1.8,0.3-3,0.3c-4.3,0-6.7-1.3-6.9-1.5
	C44,56.3,43.8,56.3,44,56c0.1-0.1,1.2-1.9,1.3-2c0.1-0.1,0.3-0.4,0.5-0.3c1.1,0.7,3.1,1.4,5.4,1.4c1.1,0,2.5-0.1,2.5-0.7
	c0-0.2-0.2-0.4-0.3-0.5c-0.3-0.2-1.8-0.3-2.1-0.4c-1.2-0.2-1.2-0.1-2.2-0.3c-0.6-0.1-1.3-0.2-1.9-0.4c-0.8-0.3-1.6-0.6-2.1-1.3
	c-0.5-0.6-0.7-1.3-0.7-2.2c0,0,0,0,0-0.1c0.1-1.3,0.9-2.3,2.5-3c0.2-0.1,0.4-0.2,0.6-0.2l0,0c0.9-0.3,2.2-0.4,2.9-0.4
	c0.9,0,2.4,0.1,3.3,0.3c1.2,0.3,2.8,0.8,2.9,1c0.1,0.1,0.1,0.2,0,0.3c-0.3,0.4-1,2.2-1.1,2.3c-0.1,0.1-0.1,0.2-0.4,0
	c0,0-2.2-0.8-3.8-0.9c-0.9,0-1.5-0.1-1.9,0c-0.5,0-1,0.4-0.9,0.6c0,0.4,0.3,0.6,1.1,0.7c0.2,0,2.7,0.4,3.6,0.5
	C54.5,50.8,56.5,51.4,57.2,52.8z"/>
</svg>
