<?xml version="1.0" encoding="utf-8"?>
<!-- Generator: Adobe Illustrator 24.1.0, SVG Export Plug-In . SVG Version: 6.00 Build 0)  -->
<svg version="1.1" xmlns="http://www.w3.org/2000/svg" xmlns:xlink="http://www.w3.org/1999/xlink" x="0px" y="0px"
	 viewBox="0 0 360.1 70.8" style="enable-background:new 0 0 360.1 70.8;" xml:space="preserve">
<g id="Layer_1">
</g>
<g id="Layer_2">
	<g>
		<path d="M36.3,31.7c-0.1,0.1-0.1,0.3-0.2,0.5c-0.1,0.3-0.2,0.6-0.4,0.9l-0.1,0.1c-1.3,1.8-3.6,4.7-7.3,6.4
			c-2.7,1.3-5.7,1.9-8.9,1.9c-2.2,0-4.4-0.2-6.6-0.9c-6.1-2-10-5.8-11.4-11.3c0-0.1-0.1-0.3-0.1-0.4c-0.9-2.3-1.1-4.7-0.7-7.7
			c0.5-4.5,2.8-8.5,6.3-11.5c2.3-2.1,5.2-3.3,8.2-3.9c1.4-0.3,2.8-0.4,4.2-0.4c3.1-0.1,6.3,0.5,9.1,1.8c1.4,0.6,2.6,1.2,3.8,2.1
			c1.3,0.9,2.6,1.9,3.4,3.2c0.6,1,0.6,1.1,0.1,1.7c-0.3,0.4-1.5,1.5-2.1,2c-0.8,0.7-2.6,2.2-3.2,2.8c-0.6,0.5-1.6-0.9-1.9-1.3
			c-1.3-1.5-3-2.6-4.8-3.3c-4.8-2-11.2-0.3-13.7,4.4c-2,3.7-1.5,8.3,1.2,11.4c3.3,3.7,9.2,4.7,13.7,2.4c1.8-0.9,3.1-2.7,4.3-4.3
			c0.5-0.6,0.9-0.4,1.6-0.1c0.6,0.3,1.1,0.5,1.6,0.7c0.8,0.3,2.7,1.3,3.5,1.7C36.7,30.9,36.3,31.7,36.3,31.7z"/>
		<path d="M48,19.2l0,1.9c0,0.4,0,2.4,0,4.7c0,3.4,0,7.7,0,8.4l0,0c0,0.9,0,1.3,0,2.2l0,0.2c0,0.2,0,0.4,0,0.7c0,0.6,0,2.2,0,2.8
			c0,0.6,0.1,0.8-0.6,0.8c-0.3,0-2.2,0-2.4,0l-0.4,0c-0.2,0-0.5,0-0.8,0c-0.3,0-0.6,0-1,0c-0.4,0-2.2,0-2.6,0
			c-0.5,0-0.5-0.1-0.5-1.6c0-0.2,0-0.4,0-0.6c0.1-1.4,0-19.1,0-19.3c0-1-0.1-1.7,0.5-1.7c0,0,6.8,0,6.9,0C48.1,17.8,48,18,48,19.2z
			 M39.8,7.9c0-0.8-0.1-1.9,0.4-1.9c0.4,0,2.3,0,2.7,0c0.7,0,4.2,0,4.4,0c0.6,0,0.7,0.6,0.7,1.6C47.9,8,48,8.5,48,9
			c0,1.1-0.1,2.2-0.1,3.1c0,1.9-0.1,2.4-0.6,2.4c-0.3,0-1.7,0-2,0c-0.2,0-2.4,0-3.1,0c-0.2,0-1.9,0-2.1,0c-0.3,0-0.2-0.7-0.2-1.6
			C39.9,11.8,39.8,9.2,39.8,7.9z"/>
		<path d="M76.5,40.9c-0.6,0-1.2,0-2,0c-0.8,0-2,0-2.7,0h-0.1c-0.4,0-0.3,0-0.8,0c-0.6,0-0.8,0.1-1.1-0.7c0,0-0.4-1.5-0.4-1.5
			c-1.5,1.8-3.1,2.6-4.4,2.7c-1.4,0.1-2.5,0.1-3.7,0.1c-1.4,0-3.4-0.1-4.7-0.6c-1.3-0.5-2.5-1.3-3.4-2.2c-1-1-1.4-2.2-1.5-3.6
			c-0.2-2.2,0.5-4.6,2-6.2c1.4-1.5,3-2.1,4.9-2.6c1.1-0.3,2.5-0.4,3.9-0.4c3.4,0,5.5,0.5,7,1.9c0-0.1,0-1.1,0-1.2
			c-0.1-0.6-0.3-1.1-0.6-1.5c-2.3-2.6-8.7-2.4-10.9-0.4c-0.1,0.1-0.2,0.1-0.5,0.4c-0.2,0.2-0.7,0.3-0.9,0.1
			c-0.8-0.8-2.8-2.7-3.3-3.5c-0.4-0.5,1.9-2.6,5.4-3.6c0.2-0.1,0.6-0.2,0.8-0.3c2.4-0.6,5.7-0.7,8.2-0.2c2.7,0.5,5,1.6,6.8,3.3
			c1.6,1.5,2.6,3.8,2.6,6.1c0,4.2,0,7,0,11.5C77,39.3,77.2,40.9,76.5,40.9z M69.2,32.9c0-0.2-0.1-0.6-0.4-0.9
			c-0.5-0.5-1.7-0.9-2.5-0.9c-0.3,0-0.8,0-1.2,0c-0.9,0-1.2,0-2,0c-1.8,0-2.3,0.7-2.6,1c-0.3,0.5-0.5,1.4-0.3,1.9
			c0.5,1.1,1.3,1.9,4.3,1.9c0.6,0,1.8-0.1,2.6-0.2c0.7-0.2,2.1-0.6,2.1-2.2V32.9z"/>
		<path d="M106.3,40.4c0,0.4-0.2,0.5-1.2,0.5h-1h-5.8c-0.3,0-0.2-1.3-0.3-1.9l0-0.1c0-0.3,0-0.6,0-0.9c0-0.1,0-0.3,0-0.4
			c0-2.7,0-5,0-7.7l0-1.4c0-3.2-1.5-4.3-3.9-4.3c-3,0-4.3,2.8-4.4,5.2c0,0.8-0.1,2.2-0.1,3.2c0,2.1,0,1.6,0,3.6l0-0.2
			c0,0.7,0,3.1,0,3.9c0,1.1,0,1.1-0.7,1c-0.1,0-2,0-2.1,0c-0.7,0-2.3,0-3.2,0c-0.4,0-1.3,0-1.3,0c-0.8,0-0.9-0.1-0.9-0.6
			c0-0.2,0.1-20,0.1-20c0-0.4,0-1.5,0-2.1c0-0.2,0.2-0.4,0.5-0.4c1.5,0,6.5,0,6.5,0c0.4,0,0.3,2.2,0.7,4.2c1.5-3.1,4.1-4.8,8.1-4.8
			c6.1,0,9,4.5,9,9.7c0,1.8-0.1,8.7,0,10.4l0,0.6C106.3,38.3,106.3,40,106.3,40.4z"/>
		<path d="M166.9,26.3c-0.2,1.5-0.6,3-1,4.5c-0.3,1.2-0.9,2.3-1.8,3.4c-0.5,0.6-1,1.2-1.4,1.7c-0.2,0.2-0.3,0.4-0.5,0.6
			c-0.8,0.9-2.4,2.1-3.5,2.8c-1.1,0.6-5,1.5-6.6,1.5c-1.5,0-3,0.1-4.5,0.1c-1.5,0-1.7,0-3.2,0c-1.5,0-3,0-4.5,0c-0.6,0-2,0-3.5,0
			c-1.6,0-3.2,0-3.9,0h-0.6l-0.1-0.6c-0.1-0.3-0.1-0.7-0.1-1.1c0-0.1,0-0.1,0-0.2c0-0.4,0-0.8,0-1.2c0-0.2,0-0.4,0-0.6
			c0-0.2,0-0.4,0-0.6c0-0.5-0.1-6.9-0.1-9.9c0-0.6,0-1.3,0-1.9c0-0.4,0-14,0-15.8c0-1-0.1-2.8,0.3-2.8c1.4,0,5.2,0,6.6,0
			c1.6,0,2.4,0,3.9,0c0.3,0,0.6,0,0.9,0c0.4,0,0.9,0,1.3,0l0,0c2.7,0,3,0,5.8,0l0,0c1.9,0,4.4,0.2,6.2,0.9c2.3,0.8,4.2,2.4,5.9,4.2
			c0.2,0.2,0.4,0.5,0.6,0.8c0.1,0.2,0.3,0.4,0.4,0.6c0.7,1.2,1.5,2.4,2,3.7c0.9,2.1,1.5,4.5,1.6,6.8C167,24.1,167,25.2,166.9,26.3z
			 M158.3,22.9c-0.1-1.8-0.7-3.6-1.8-5.4c-0.6-1.1-1.9-2.5-3-3.2c0,0-2.2-0.9-3.9-0.9c-2.8,0-8.9-0.1-9.5,0c0,0.2,0,0.7,0,0.9
			c0,0.8,0,1.1,0,1.9c0,1.5,0,3.5,0,5.1c-0.1,3.8-0.1,8.2,0,11.6c0,0,0,0.2,0,0.2c1,0,8,0,8,0c0.7,0,1.6,0.1,2.3,0l0.7-0.1
			c2.1-0.2,3.3-0.6,4.6-2.1C157.6,28.8,158.5,26,158.3,22.9z"/>
		<path d="M194.5,35.9c0.4,0.3-0.8,1.3-1.2,1.6c-2.4,2.4-4.6,3.2-7.7,3.8c-0.8,0.2-1.9,0.2-3,0.2c-2.9,0-5.8-0.8-7.9-2.4
			c-2.7-2-4.7-4.7-5-8.5c-0.3-3,0.4-5.8,1.8-8c0.8-1.3,2-2.5,3.4-3.4c1.4-0.9,3.2-1.5,5.5-1.9c1.3-0.2,3-0.2,4.2-0.1
			c3.8,0.6,6.9,2.4,8.6,5.1c1.2,1.9,1.7,3.5,1.7,6.5c0,2-0.2,2.6-0.7,2.6c-1.3,0-14.6-0.1-15.5-0.1c-0.2,0-0.4,0-0.7,0l0,0
			c-0.1,0-0.3,0-0.5,0c0.2,1.4,0.9,1.9,1.5,2.5c1.5,1.4,4.9,1.7,6.6,1c0.9-0.3,2-0.9,2.8-1.4c0.3-0.2,0.9-0.8,1.2-1
			c0.3-0.2,0.4,0.1,1,0.4c1.1,0.6,1.7,1.3,2.6,2.1L194.5,35.9z M177.6,26.2c2.3,0,7.6,0.1,9.7,0.1c-0.4-1.8-2-3-4.9-3
			C179.7,23.3,177.8,24.7,177.6,26.2z"/>
		<path d="M223.7,30.8c1.5,2.9,0.3,6.4-1.5,8.2c-1.2,1.2-2.8,1.5-4.4,2c-1.8,0.5-3.5,0.6-5.8,0.6c-8.5,0-13.1-2.6-13.6-3
			c-0.8-0.7-1-0.8-0.6-1.2c0.2-0.3,2.4-3.8,2.5-3.9c0.2-0.3,0.7-0.8,1-0.6c2.1,1.3,6,2.8,10.7,2.8c2.1,0,4.8-0.1,4.9-1.4
			c0-0.4-0.3-0.8-0.5-0.9c-0.6-0.4-3.5-0.7-4.2-0.8c-2.4-0.4-2.3-0.3-4.4-0.6c-1.2-0.2-2.5-0.4-3.7-0.8c-1.5-0.5-3-1.2-4.1-2.5
			c-0.9-1.2-1.5-2.6-1.3-4.3c0,0,0-0.1,0-0.1c0.2-2.5,1.8-4.6,4.8-5.8c0.4-0.2,0.9-0.4,1.3-0.5l0.1,0c1.8-0.6,4.3-0.7,5.8-0.8
			c1.7,0,4.7,0.3,6.4,0.7c2.4,0.5,5.6,1.6,5.8,1.9c0.3,0.3,0.2,0.3,0.1,0.6c-0.5,0.8-2.1,4.3-2.2,4.6c-0.2,0.2-0.2,0.3-0.9,0
			c0,0-4.3-1.7-7.4-1.8c-1.7-0.1-3-0.2-3.6,0c-1,0-1.9,0.7-1.8,1.2c0.1,0.7,0.7,1.1,2.1,1.3c0.4,0,5.2,0.8,7,1
			C218.3,26.9,222.3,28,223.7,30.8z"/>
		<path d="M269.1,40.4c0,0.4-0.2,0.5-1.2,0.5h-1H261c-0.3,0-0.2-1.3-0.3-1.9l0-0.1c0-0.3,0-0.6,0-0.9c0-0.1,0-0.3,0-0.4
			c0-2.7,0-5,0-7.7l0-1.4c0-3.2-1.5-4.3-3.8-4.3c-2.9,0-4.1,2.8-4.2,5.1c0,0,0,0.1,0,0.1c0,0.1,0,0.2,0,0.3c0,0.2,0,0.5,0,0.7
			c0,2.6,0,5.7,0,6.8l0,0.6c0,0.4,0,2.1,0,2.5c0,0.4-0.2,0.5-1.2,0.5l-1,0l-5.8,0c-0.3,0-0.2-1.3-0.3-1.9l0-0.1c0-0.3,0-0.6,0-0.9
			c0-0.1,0-0.3,0-0.4c0-2.7,0-5,0-7.7l0-1.4c0-3.2-1.5-4.3-3.8-4.3c-2.9,0-4.1,2.9-4.2,5.2c0,0.8-0.1,2.2-0.1,3.2c0,2.1,0,1.6,0,3.6
			V36c0,0.7,0,3.1,0,3.9c0,1.1,0,1.1-0.7,1c-0.1,0-2,0-2.1,0c-0.7,0-2.3,0-3.2,0c-0.4,0-1.3,0-1.3,0c-0.8,0-0.9-0.1-0.9-0.6
			c0-0.2,0.1-20,0.1-20c0-0.4,0-1.5,0-2.1c0-0.2,0.2-0.4,0.5-0.4c1.5,0,6.5,0,6.5,0c0.4,0,0.3,2.2,0.7,4.2c1.5-3.1,4.1-4.8,8-4.8
			c4,0,6.6,2,7.9,4.8c1.7-3,4.5-4.8,8.4-4.8c6,0,8.9,4.5,8.9,9.7c0,1.8-0.1,8.7,0,10.4l0,0.6C269.1,38.3,269.1,40,269.1,40.4z"/>
		<path d="M297.2,36.7c-2.4,3-6.7,4.8-10.9,4.8c-0.1,0-1,0-1.1,0c-3.6-0.1-7.3-1.6-9.8-4.1c-2.1-2.2-3.3-5.6-2.9-8.9
			c0.6-6.6,5.7-11.2,13.3-11.4c3.6-0.1,7.7,1.1,9.9,3.3c2.3,2.2,3.9,5.7,3.9,8.8C299.8,31.8,299,34.5,297.2,36.7z M291.2,27.6
			c-0.3-1-0.9-2.2-2.4-3c-0.7-0.4-1.8-0.6-2.7-0.6c-1.1,0-2.3,0.2-3.3,0.9c-1.4,0.9-2.3,2.7-2.3,4.4c0,3.3,2.2,5.3,5.6,5.4
			c1.4,0,2.7-0.3,3.8-1.2C291.4,31.9,291.8,29.7,291.2,27.6z"/>
		<path d="M328.3,40.4c0,0.4-0.2,0.5-1.2,0.5h-1h-5.8c-0.3,0-0.2-1.3-0.3-1.9l0-0.1c0-0.3,0-0.6,0-0.9c0-0.1,0-0.3,0-0.4
			c0-2.7,0-5,0-7.7l0-1.4c0-3.2-1.5-4.3-3.9-4.3c-3,0-4.3,2.8-4.4,5.2c0,0.8-0.1,2.2-0.1,3.2c0,2.1,0,1.6,0,3.6l0-0.2
			c0,0.7,0,3.1,0,3.9c0,1.1,0,1.1-0.7,1c-0.1,0-2,0-2.1,0c-0.7,0-2.3,0-3.2,0c-0.4,0-1.3,0-1.3,0c-0.8,0-0.9-0.1-0.9-0.6
			c0-0.2,0.1-20,0.1-20c0-0.4,0-1.5,0-2.1c0-0.2,0.2-0.4,0.5-0.4c1.5,0,6.5,0,6.5,0c0.4,0,0.3,2.2,0.7,4.2c1.5-3.1,4.1-4.8,8.1-4.8
			c6.1,0,9,4.5,9,9.7c0,1.8-0.1,8.7,0,10.4l0,0.6C328.3,38.3,328.3,40,328.3,40.4z"/>
		<path d="M358.5,30.5L358.5,30.5c0,1.5,0,2.4,0,3.8v0.4c0,1.2,0,3.5,0,4.7c0,1.1,0,1.5-0.4,1.5c-0.4,0-2.7,0-3.1,0
			c-0.8,0-1.1,0-2,0l-0.6,0c-0.6,0-1.3-2-1.6-3.2c-1.2,1.9-4,3.8-7.4,3.8h-0.3c-5.5-0.1-9.5-3.8-10.5-7.5c-1.2-4.5-1-7.9,1.2-11.5
			c0.8-1.3,1.4-2.1,2.6-3c0.8-0.6,2.4-1.7,4.2-2.1c0.9-0.2,2.3-0.3,3.1-0.3h0c3.1,0,5.8,1.7,6.9,3.4c0-0.6,0-1.7,0-2.3
			c0-0.4-0.1-7.9-0.1-8.3c0-1.7,0-2.5,0-3c0-0.8,0.2-0.9,0.5-0.9c0,0,7,0,7.2,0c0.3,0,0.3,0.3,0.3,1l0,3.7c0,1.6,0,8,0,8.8
			c0,1.7,0.1,3.5,0.1,5.7C358.5,27,358.5,28.8,358.5,30.5z M350.3,29.6c0-0.2,0-0.4,0-0.6c-0.1-1-0.1-1.5-0.7-2.2
			c-1-1.5-3.1-2.3-5.1-2.1c-3,0.3-4.7,2.5-4.7,4.9c0,2.8,2.1,4.6,5.5,4.6c1,0,2.1-0.4,3-1c1-0.7,1.7-2,1.9-3c0,0,0,0,0,0
			C350.3,29.9,350.3,29.9,350.3,29.6z"/>
	</g>
	<g>
		<path d="M94.8,53.1c0,0,0,0.1,0,0.1l0,0.1c-0.6,1.4-1.2,2.8-1.8,4.2c-0.3,0.8-0.7,1.5-1,2.3c-0.2,0.6-0.5,1.1-0.7,1.7l0,0
			c-0.4,0.9-0.9,2-1.4,3.2c-0.1,0.2-0.1,0.3-0.2,0.5c0,0.1-0.1,0.2-0.1,0.2c0,0-0.1,0-0.1,0l-0.1,0c-0.1,0-0.3,0-0.5,0
			c-0.2,0-0.4,0-0.6,0c-0.2,0-0.4,0-0.6,0h0c-0.1,0-0.2,0-0.4,0c0,0-0.1,0-0.1,0c0,0-0.1-0.1-0.1-0.3c0,0-0.4-0.9-0.6-1.2
			c-0.5-1.1-1-2.4-1.5-3.7l0,0c-0.3-0.9-1.2-3-1.5-3.9c0-0.1-0.3,0.9-0.4,1.1c0,0,0,0,0,0.1c-0.1,0.2-0.4,0.9-0.7,1.9l0,0l0,0.1
			c-0.7,1.8-1.6,4.2-2,5.2c-0.1,0.1-0.1,0.3-0.2,0.4c0,0.1-0.1,0.2-0.1,0.3c0,0-0.1,0-0.1,0l-0.1,0c-0.1,0-1.9,0-2,0
			c0,0-0.1,0-0.1,0c0,0-0.1-0.1-0.1-0.3l0-0.1c-0.1-0.2-0.2-0.4-0.3-0.6c-0.1-0.2-0.2-0.3-0.2-0.5c-1.1-2.3-2.1-4.4-2.9-6.4
			c-0.2-0.5-0.4-0.9-0.6-1.4c-0.1-0.3-0.2-0.5-0.3-0.8c-0.2-0.6-0.5-1.2-0.8-1.8c0-0.1-0.1-0.1-0.1-0.2c0,0,0,0,0,0
			c0-0.1,0-0.1,0-0.1c0,0,0.1,0,0.1,0c0.2,0,0.4,0,0.7,0c0.2,0,0.5,0,0.7,0l0.2,0c0.2,0,0.3,0,0.5,0c0.1,0,0.2,0,0.3,0l0.1,0
			l0.2,0.4l0,0c0.3,0.6,0.5,1.2,0.8,1.9c0.4,1,0.8,1.9,1.2,2.8c0.1,0.1,0.1,0.2,0.2,0.4c0.1,0.3,0.3,0.6,0.4,0.9
			c0.2,0.6,1.3,2.9,1.3,2.9s0.4-0.5,1.5-3.9c0.3-1.1,0.7-2.1,1-2.9c0.5-1.3,0.7-2.1,0.8-2.1c0-0.1,0.1-0.2,0.1-0.2h2
			c0.1,0,0.2,0,0.3,0c0.1,0,0.2,0,0.3,0h0.1c0.1,0.2,0.1,0.3,0.2,0.5c0,0.1,0.1,0.2,0.1,0.3c0,0.1,0.1,0.2,0.1,0.3
			c0.2,0.5,0.3,0.8,0.5,1.2c0.1,0.3,0.4,0.9,0.6,1.6l0,0c0.6,1.5,2.1,5.6,2.1,5.5c0-0.1,1-3.2,1.1-3.4c0.2-0.5,0.4-1,0.6-1.4
			l0.4-0.9l0.2-0.5c0.3-0.9,0.7-1.7,1.1-2.7l0-0.1l0,0c0-0.1,0.1-0.1,0.1-0.2c0.1-0.1,0.1-0.2,0.1-0.2L94.8,53.1
			C94.7,53.1,94.7,53.1,94.8,53.1z"/>
		<path d="M106.4,54.1c-0.3,0.3-0.6,0.7-0.9,1l0,0c-0.3,0.3-0.5,0.6-0.7,0.8l0,0c0,0-0.1,0.1-0.1,0.1c-0.3-0.3-0.9-0.8-2.3-0.9
			c-0.1,0-0.1,0-0.2,0c-0.4,0-0.7,0.1-1.2,0.2c-1.4,0.5-1.8,2.3-1.9,2.8c0,0.1,0,0.2-0.1,0.4c0,0,0,0,0,0.1c0,0.4,0,0.7,0,1.1
			c0,0.7,0,1.5,0,2.1c0,0.5,0,1.1,0,1.7v0.2c0,0.2,0,0.4,0,0.6c0,0.3,0,0.6,0,0.8v0c0,0,0,0.1,0,0.1c-0.1,0-2,0-2.6,0h0
			c-0.1,0-0.1,0-0.1,0c0,0,0-0.1,0-0.1c0,0,0,0,0,0c0-0.8,0-1.6,0-2.5c0-0.6,0-1.2,0-1.9c0-0.5,0-1.1,0-1.6l0-0.1v0l0,0v0
			c0-0.4,0-0.8,0-1.1c0-0.3,0-0.6,0-0.9v0c0-0.4,0-0.8,0-1.2v0c0-0.2,0-0.7,0-1.2c0-0.4,0-0.7,0-0.8v-0.1l0,0v-0.1
			c0-0.4,0-0.5,0.1-0.6c0,0,0.1,0,0.2,0c0,0,0,0,0.1,0h0.2c0.1,0,0.1,0,0.2,0c0.3,0,0.6,0,0.9,0c0.3,0,0.5,0,0.8,0h0.1
			c0,0,0,0,0.1,0h0c0,0,0.1,0,0.1,0c0,0,0,0,0.1,0c0.1,0,0.1,0,0.1,0c0,0,0,0,0,0c0,0,0,0.1,0,0.2c0,0,0,0.8,0,1.4c0,0,0,0,0,0.1
			c0,0.2,0.1,0.4,0.1,0.4c0-0.1,0.4-0.7,0.4-0.8c0.4-0.6,1-1,1.6-1.2c0.6-0.2,1.4-0.5,2.1-0.5c0.4,0,0.9,0.1,1.3,0.2
			C105.3,53.1,105.8,53.3,106.4,54.1z"/>
		<path d="M110.8,47.1c0,0.4,0,1.1,0,1.8c0,0.1,0,0.3-0.1,0.4c0,0.1-0.1,0.1-0.1,0.1c-0.2,0-0.3,0-0.5,0h-0.3c-0.1,0-0.2,0-0.4,0
			c-0.2,0-0.3,0-0.5,0s-0.3,0-0.5,0c-0.1,0-0.1,0-0.2,0l-0.4,0h0c0,0,0,0,0,0c0,0-0.1-1.2,0-1.8l0,0c0-0.3,0-0.7,0-1
			c0-0.1,0-0.2,0.2-0.2l2.7,0c0.1,0,0.1,0,0.2,0C110.8,46.7,110.9,46.9,110.8,47.1z M110.8,64.3c0,0.3,0,0.6,0,0.9l0,0v0
			c0,0,0,0.1,0,0.1c-0.1,0-0.2,0-0.3,0c-0.3,0-0.5,0-0.8,0c-0.5,0-1.1,0-1.7,0c-0.1,0-0.1,0-0.1,0c0-0.1,0-0.1,0-0.2l0,0v0
			c0-0.6,0-7.7,0-8l0-0.1c0-0.4,0-1.1,0-1.1c0-0.1,0-2,0-2.2v0c0-0.4,0-0.6,0-0.7c0,0,0.7,0,0.7,0c0.3,0,0.6,0,0.9,0
			c0.3,0,0.5,0,0.8,0h0.1c0,0,0.4,0,0.4,0c0,0,0,0.1,0,0.2v0.2c0,0.2-0.1,3.2-0.1,3.4v0c0,0.3,0,0.5,0,0.8c0,0.6,0,1.3,0,2.2
			c0,0.7,0,1.5,0,2.1c0,0.5,0,1.1,0,1.7v0.1C110.7,63.9,110.7,64.1,110.8,64.3z"/>
		<path d="M122.8,64.1C122.7,64.1,122.7,64.1,122.8,64.1c-0.6,0.7-1.4,1.2-2.4,1.4c-0.4,0.1-0.8,0.1-1.3,0.1c-0.4,0-0.9,0-1.3-0.1
			c-0.6-0.1-1.1-0.3-1.6-0.8c-0.6-0.6-1-1.2-1.1-1.9c-0.1-0.5-0.1-1.1-0.1-1.7c0-0.1,0-0.3,0-0.4l0-0.2c0,0,0,0,0-0.1v0
			c0-0.3,0-0.7,0-1.1l0-0.2c0-0.4,0-0.9,0-1.3c0-0.3,0-0.5,0-0.8l0-0.1l0,0c0-0.4,0-0.9,0-1.4c0,0,0,0,0,0c0-0.1,0-0.5,0-0.5
			c-0.1,0-0.5,0-1,0c-0.2,0-0.5,0-0.8,0h0c-0.2,0-0.1,0-0.3,0c-0.2,0-0.3,0-0.4,0c-0.1,0-0.1,0-0.2,0c0,0,0,0,0-0.1
			c0-0.5,0-0.8,0-1.2v0l0-0.5c0,0,0,0,0,0l0,0l0,0c0,0,0-0.1,0-0.1c0,0,0.1,0,0.1,0c0.2,0,0.3,0,0.3,0c0.1,0,0.1,0,0.1,0
			c0,0,0,0,0.1,0h0c0,0,0.1,0,0.2,0c0.1,0,0.5,0,1,0c0.4,0,0.5,0,0.6,0l0.4,0c0,0,0-0.1,0-0.4c0-0.3,0-0.7,0-1.2c0-0.2,0-0.5,0-0.7
			v0c0-0.7,0-1.3-0.1-2c0-0.1,0-0.1,0.1-0.2c0.1,0,0.1,0,0.2-0.1c0.1,0,0.1-0.1,0.2-0.1c0.2-0.1,0.4-0.2,0.6-0.2l0.3-0.1l0,0
			c0.4-0.2,0.8-0.3,1.2-0.5c0,0.2,0,0.4,0,0.7c0,0.2,0,0.4,0,0.6c0,0.6,0.1,3.5,0.1,3.8v0c0,0.1,0,0.4,0,0.4c0.1,0,0.6,0,0.6,0
			c0.2,0,0.3,0,0.5,0l0,0c0.1,0,0.2,0,0.2,0h0c0.2,0,0.4,0,0.5,0l0.2,0l0.2,0c0.2,0,0.4,0,0.7,0c0,0,0.2,0,0.2,0c0,0,0,0.1,0,0.2
			c0,0.1,0,0.3,0,0.4c0,0.3,0,0.5,0,0.7v0l0,0.1c0,0.2,0,0.4,0,0.6c0,0,0,0.1-0.1,0.2c-0.1,0-0.2,0-0.3,0c-0.1,0-0.3,0-0.4,0
			c-0.3,0-0.7,0-1.1,0c-0.3,0-1.1,0-1.4,0c0,0-0.1,1.9,0,2.4c0,0.2,0.1,1.7,0.1,2.2v0.5c0,0,0,0,0,0.1v1.1c0,0.1,0,0.2,0,0.4
			c0.1,0.8,0.7,1.5,1.5,1.6c0.1,0,0.3,0,0.4,0c0.6,0,1.2-0.2,1.7-0.7c0.1-0.1,0.1-0.1,0.2-0.2c0,0,0,0,0,0l0,0c0,0,0.1,0.1,0.1,0.1
			C122,63.2,122.4,63.6,122.8,64.1C122.7,64.1,122.7,64.1,122.8,64.1z"/>
		<path d="M136,59.4c0,0.1,0,0.3,0,0.4c-0.1,0-0.2,0-0.4,0c-0.6,0-1.3,0-2.2,0c-0.2,0-0.8,0-1.8,0c-1.5,0-3.6,0-3.9,0
			c-0.1,0-0.3,0-0.4,0c-0.2,0-0.4,0-0.7,0c-0.3,0-0.9,0-0.9,0c-0.1,0-0.1,0-0.2,0.1c0,0.4,0.1,0.7,0.2,1c0.7,1.5,2.2,2.4,4,2.4
			c0.6,0,1.2-0.2,1.8-0.4c0.6-0.2,1.1-0.6,1.6-0.9c0.1-0.1,0.2-0.1,0.2-0.2c0.2-0.2,0.4-0.3,0.5-0.5c0.3,0.2,0.6,0.6,0.9,0.9
			c0.2,0.2,0.4,0.4,0.6,0.6c0.1,0.1,0.1,0.2,0,0.2c-0.1,0.1-0.3,0.3-0.3,0.3c-1,1.1-2.3,1.8-4,2.2c-0.5,0.1-1,0.1-1.4,0.1
			c-1.6,0-3.1-0.4-4.2-1.2c-1.4-1-2.3-2.7-2.4-4.7c-0.1-1.6,0.2-3,0.9-4.2c0.4-0.7,1-1.3,1.8-1.8c0.7-0.5,1.7-0.8,2.9-1
			c0.4-0.1,0.8-0.1,1.1-0.1c0.3,0,0.5,0,0.8,0.1c1.9,0.3,3.2,1.1,4.2,2.6c0.7,1.1,1,2,1.1,3.4C136,58.8,136,59.2,136,59.4z
			 M133.4,57.7l-0.1-0.3c0,0,0,0,0,0c-0.1-0.2-0.2-0.3-0.3-0.5c-0.1-0.2-0.2-0.3-0.3-0.5c-0.2-0.3-0.4-0.5-0.7-0.8
			c-0.6-0.4-1.3-0.6-2-0.6c-0.5,0-1.2,0.1-1.6,0.2c0,0,0,0,0,0c-1.9,0.6-2.5,2-2.5,2.2l-0.1,0.2h0.3c0,0,0.1,0,0.1,0
			c0.3,0,0.7,0,1.3,0c0.8,0,2,0,2.7,0c0.5,0,1,0,1.4,0c0.4,0,0.5,0,0.8,0C133,57.7,133.4,57.7,133.4,57.7z"/>
		<path d="M148.2,54.1c-0.3,0.3-0.6,0.7-0.9,1l0,0c-0.3,0.3-0.5,0.6-0.7,0.8l0,0c0,0-0.1,0.1-0.1,0.1c-0.3-0.3-0.9-0.8-2.3-0.9
			c-0.1,0-0.1,0-0.2,0c-0.4,0-0.7,0.1-1.2,0.2c-1.4,0.5-1.8,2.3-1.9,2.8c0,0.1,0,0.2-0.1,0.4c0,0,0,0,0,0.1c0,0.4,0,0.7,0,1.1
			c0,0.7,0,1.5,0,2.1c0,0.5,0,1.1,0,1.7v0.2c0,0.2,0,0.4,0,0.6c0,0.3,0,0.6,0,0.8v0c0,0,0,0.1,0,0.1c-0.1,0-2,0-2.6,0h0
			c-0.1,0-0.1,0-0.1,0c0,0,0-0.1,0-0.1c0,0,0,0,0,0c0-0.8,0-1.6,0-2.5c0-0.6,0-1.2,0-1.9c0-0.5,0-1.1,0-1.6l0-0.1v0l0,0v0
			c0-0.4,0-0.8,0-1.1c0-0.3,0-0.6,0-0.9v0c0-0.4,0-0.8,0-1.2v0c0-0.2,0-0.7,0-1.2c0-0.4,0-0.7,0-0.8v-0.1l0,0v-0.1
			c0-0.4,0-0.5,0.1-0.6c0,0,0.1,0,0.2,0c0,0,0,0,0.1,0h0.2c0.1,0,0.1,0,0.2,0c0.3,0,0.6,0,0.9,0c0.3,0,0.5,0,0.8,0h0.1
			c0,0,0,0,0.1,0h0c0,0,0.1,0,0.1,0c0,0,0,0,0.1,0c0.1,0,0.1,0,0.1,0c0,0,0,0,0,0c0,0,0,0.1,0,0.2c0,0,0,0.8,0,1.4c0,0,0,0,0,0.1
			c0,0.2,0.1,0.4,0.1,0.4c0-0.1,0.4-0.7,0.4-0.8c0.4-0.6,1-1,1.6-1.2c0.6-0.2,1.4-0.5,2.1-0.5c0.4,0,0.9,0.1,1.3,0.2
			C147.1,53.1,147.6,53.3,148.2,54.1z"/>
		<path d="M179.9,65c0.1,0.1,0,0.2-0.1,0.2c-1.2,0-2.9,0-3.2,0c-0.2,0-0.2,0-0.5-0.3c-0.3-0.3-0.6-0.6-0.9-0.9l-1.1-1
			c0,0-2.3,2.2-5.3,2.5l0,0c-3.1,0.2-6.1,0-8.1-2.6c-1.7-2.3-1.3-5.2,0.5-7.2c1.1-1.2,3.5-2.2,3.5-2.2l-1-1.4
			c-0.2-0.3-0.4-0.7-0.5-1c-0.8-2.7,1.6-4.7,4.1-5c0.3,0,0.4-0.1,0.7-0.1c2,0,3.6,0.5,4.6,2c1.3,1.9,0.7,4.7-3.7,6.3l5.1,5.2
			c0,0,1.8-2.1,3-6c0,0,1.4,1.1,1.6,1.3c-1.1,3.8-3,6.1-3,6.1S178.9,64.2,179.9,65z M172.6,61.6l-6.2-6.3c-0.4,0.1-1.5,0.6-2.4,1.2
			c-1.4,0.8-1.9,2.6-1.6,4.1c0.5,2.1,2.6,2.7,4.5,2.8C170.5,63.6,172.6,61.6,172.6,61.6z M165.8,49.3c-0.8,1.2,0.1,2.3,1,3.2
			c0.1,0.1,0.5,0.5,0.5,0.5s1.5-0.5,2.2-0.8c1.2-0.5,2-2,1.2-2.9c-1-1.2-3.7-1.4-4.7-0.1C165.9,49.1,165.9,49.2,165.8,49.3z"/>
		<path d="M205,65c0,0.1,0,0.1,0,0.2c0,0,0,0,0,0h-0.6c-0.1,0-0.2,0-0.3,0h-0.3c-0.1,0-0.2,0-0.4,0h-0.2c-0.5,0-0.7-1.6-0.8-1.7
			c0,0-1.3,1.8-4,2c-2,0.2-4.5-0.8-5.6-2.6c-0.4-0.7-0.7-1.5-0.9-2.2c-0.4-1.9-0.2-4.2,1-5.8c0.6-0.8,1.3-1.4,2.2-1.8
			c1.9-0.9,3.8-0.7,5.6,0.3c0.4,0.3,1.3,1.1,1.4,1.8c0,0,0-0.4,0-0.7c0-0.1,0-0.2,0-0.2c0-0.1,0-0.5,0-0.8l0,0c0-0.4,0-0.6,0-0.7
			c0-1.1,0-1.8,0.1-2.9l0-0.4c0-0.3,0-0.6,0-0.9c0-0.4,0-0.8,0-1.3c0-0.2,0-0.4,0-0.7c0,0,0-0.1,0-0.2l0,0c0-0.1,0-0.1,0-0.1
			c0,0,0.1,0,0.2,0l0.4,0c0.7,0,1.3,0,1.9,0h0c0.1,0,0.1,0,0.2,0c0.1,0.1,0.1,0.2,0,0.5v0c0,0.5,0,1,0,1.6v0c0,1.9-0.1,3.3,0,5.2
			c0.1,1.5,0,3.1,0,4.6c0,1.4,0.1,2.8,0,4.2c0,0.2,0,0.7,0,1.3C205,64,205,64.8,205,65z M202.2,59.2c0-2.8-2.6-4-4.1-4
			c-3.5,0-3.9,2.9-3.8,4c0,0.3,0,0.7,0.1,1c0.3,1.2,1.2,2.3,2.3,2.7c0.4,0.2,1,0.3,1.5,0.3c1.3,0,2.6-0.3,3.3-1.5
			C202,60.9,202.2,60.5,202.2,59.2z"/>
		<path d="M210.6,47.1c0,0.4,0,1.1,0,1.8c0,0.1,0,0.3-0.1,0.4c0,0.1-0.1,0.1-0.1,0.1c-0.2,0-0.3,0-0.5,0h-0.3c-0.1,0-0.2,0-0.4,0
			c-0.2,0-0.3,0-0.5,0s-0.3,0-0.5,0c-0.1,0-0.1,0-0.2,0l-0.4,0h0c0,0,0,0,0,0c0,0-0.1-1.2,0-1.8l0,0c0-0.3,0-0.7,0-1
			c0-0.1,0-0.2,0.2-0.2l2.7,0c0.1,0,0.1,0,0.2,0C210.6,46.7,210.6,46.9,210.6,47.1z M210.5,64.3c0,0.3,0,0.6,0,0.9l0,0v0
			c0,0,0,0.1,0,0.1c-0.1,0-0.2,0-0.3,0c-0.3,0-0.5,0-0.8,0c-0.5,0-1.1,0-1.7,0c-0.1,0-0.1,0-0.1,0c0-0.1,0-0.1,0-0.2l0,0v0
			c0-0.6,0-7.7,0-8l0-0.1c0-0.4,0-1.1,0-1.1c0-0.1,0-2,0-2.2v0c0-0.4,0-0.6,0-0.7c0,0,0.7,0,0.7,0c0.3,0,0.6,0,0.9,0
			c0.3,0,0.5,0,0.8,0h0.1c0,0,0.4,0,0.4,0c0,0,0,0.1,0,0.2v0.2c0,0.2-0.1,3.2-0.1,3.4v0c0,0.3,0,0.5,0,0.8c0,0.6,0,1.3,0,2.2
			c0,0.7,0,1.5,0,2.1c0,0.5,0,1.1,0,1.7v0.1C210.4,63.9,210.5,64.1,210.5,64.3z"/>
		<path d="M223.2,54.1c-0.3,0.3-0.6,0.7-0.9,1l0,0c-0.3,0.3-0.5,0.6-0.7,0.8l0,0c0,0-0.1,0.1-0.1,0.1c-0.3-0.3-0.9-0.8-2.3-0.9
			c-0.1,0-0.1,0-0.2,0c-0.4,0-0.7,0.1-1.2,0.2c-1.4,0.5-1.8,2.3-1.9,2.8c0,0.1,0,0.2-0.1,0.4c0,0,0,0,0,0.1c0,0.4,0,0.7,0,1.1
			c0,0.7,0,1.5,0,2.1c0,0.5,0,1.1,0,1.7v0.2c0,0.2,0,0.4,0,0.6c0,0.3,0,0.6,0,0.8v0c0,0,0,0.1,0,0.1c-0.1,0-2,0-2.6,0h0
			c-0.1,0-0.1,0-0.1,0c0,0,0-0.1,0-0.1c0,0,0,0,0,0c0-0.8,0-1.6,0-2.5c0-0.6,0-1.2,0-1.9c0-0.5,0-1.1,0-1.6l0-0.1v0l0,0v0
			c0-0.4,0-0.8,0-1.1c0-0.3,0-0.6,0-0.9v0c0-0.4,0-0.8,0-1.2v0c0-0.2,0-0.7,0-1.2c0-0.4,0-0.7,0-0.8v-0.1l0,0v-0.1
			c0-0.4,0-0.5,0.1-0.6c0,0,0.1,0,0.2,0c0,0,0,0,0.1,0h0.2c0.1,0,0.1,0,0.2,0c0.3,0,0.6,0,0.9,0c0.3,0,0.5,0,0.8,0h0.1
			c0,0,0,0,0.1,0h0c0,0,0.1,0,0.1,0c0,0,0,0,0.1,0c0.1,0,0.1,0,0.1,0c0,0,0,0,0,0c0,0,0,0.1,0,0.2c0,0,0,0.8,0,1.4c0,0,0,0,0,0.1
			c0,0.2,0.1,0.4,0.1,0.4c0-0.1,0.4-0.7,0.4-0.8c0.4-0.6,1-1,1.6-1.2c0.6-0.2,1.4-0.5,2.1-0.5c0.4,0,0.9,0.1,1.3,0.2
			C222.1,53.1,222.5,53.3,223.2,54.1z"/>
		<path d="M236,59.4c0,0.1,0,0.3,0,0.4c-0.1,0-0.2,0-0.4,0c-0.6,0-1.3,0-2.2,0c-0.2,0-0.8,0-1.8,0c-1.5,0-3.6,0-3.9,0
			c-0.1,0-0.3,0-0.4,0c-0.2,0-0.4,0-0.7,0c-0.3,0-0.9,0-0.9,0c-0.1,0-0.1,0-0.2,0.1c0,0.4,0.1,0.7,0.2,1c0.7,1.5,2.2,2.4,4,2.4
			c0.6,0,1.2-0.2,1.8-0.4c0.6-0.2,1.1-0.6,1.6-0.9c0.1-0.1,0.2-0.1,0.2-0.2c0.2-0.2,0.4-0.3,0.5-0.5c0.3,0.2,0.6,0.6,0.9,0.9
			c0.2,0.2,0.4,0.4,0.6,0.6c0.1,0.1,0.1,0.2,0,0.2c-0.1,0.1-0.3,0.3-0.3,0.3c-1,1.1-2.3,1.8-4,2.2c-0.5,0.1-1,0.1-1.4,0.1
			c-1.6,0-3.1-0.4-4.2-1.2c-1.4-1-2.3-2.7-2.4-4.7c-0.1-1.6,0.2-3,0.9-4.2c0.4-0.7,1-1.3,1.8-1.8c0.7-0.5,1.7-0.8,2.9-1
			c0.4-0.1,0.8-0.1,1.1-0.1c0.3,0,0.5,0,0.8,0.1c1.9,0.3,3.2,1.1,4.2,2.6c0.7,1.1,1,2,1.1,3.4C236,58.8,236,59.2,236,59.4z
			 M233.3,57.7l-0.1-0.3c0,0,0,0,0,0c-0.1-0.2-0.2-0.3-0.3-0.5c-0.1-0.2-0.2-0.3-0.3-0.5c-0.2-0.3-0.4-0.5-0.7-0.8
			c-0.6-0.4-1.3-0.6-2-0.6c-0.5,0-1.2,0.1-1.6,0.2c0,0,0,0,0,0c-1.9,0.6-2.5,2-2.5,2.2l-0.1,0.2h0.3c0,0,0.1,0,0.1,0
			c0.3,0,0.7,0,1.3,0c0.8,0,2,0,2.7,0c0.5,0,1,0,1.4,0c0.4,0,0.5,0,0.8,0C233,57.7,233.3,57.7,233.3,57.7z"/>
		<path d="M249.9,62.2c-0.8,1.5-2.3,2.7-3.7,3.1c-0.6,0.2-1.3,0.3-2,0.3c-1.8,0-3.5-0.6-4.7-1.6c-1.5-1.3-2.2-3.2-2.1-5.3
			c0.1-2.1,1.2-4,2.9-5.1c0.6-0.4,1.4-0.7,2-0.8c0.5-0.1,1-0.2,1.5-0.2c1.3,0,2.6,0.3,3.7,0.9c1.6,0.9,2.2,2,2.2,2.1
			c0,0,0,0.1,0,0.1c0,0,0,0,0,0c-0.1,0.1-2.1,1.4-1.9,1.2c-0.1-0.1-0.2-0.2-0.3-0.3c-0.8-1-2.2-1.5-3.6-1.5c-0.4,0-0.7,0.1-1,0.1
			c-1.8,0.4-3,2.1-2.9,4.1c0.1,1.7,1.1,3.1,2.9,3.6c0.4,0.1,0.8,0.2,1.2,0.2c1.4,0,2.8-0.6,3.6-1.6c0.1-0.1,0.3-0.4,0.4-0.5
			c0.6,0.3,1.2,0.8,1.7,1c0,0,0.1,0.1,0.1,0.1C250,62.1,250,62.2,249.9,62.2z"/>
		<path d="M261.3,64.1C261.3,64.1,261.2,64.1,261.3,64.1c-0.6,0.7-1.4,1.2-2.4,1.4c-0.4,0.1-0.8,0.1-1.3,0.1c-0.4,0-0.9,0-1.3-0.1
			c-0.6-0.1-1.1-0.3-1.6-0.8c-0.6-0.6-1-1.2-1.1-1.9c-0.1-0.5-0.1-1.1-0.1-1.7c0-0.1,0-0.3,0-0.4l0-0.2c0,0,0,0,0-0.1v0
			c0-0.3,0-0.7,0-1.1l0-0.2c0-0.4,0-0.9,0-1.3c0-0.3,0-0.5,0-0.8l0-0.1l0,0c0-0.4,0-0.9,0-1.4c0,0,0,0,0,0c0-0.1,0-0.5,0-0.5
			c-0.1,0-0.5,0-1,0c-0.2,0-0.5,0-0.8,0h0c-0.2,0-0.1,0-0.3,0c-0.2,0-0.3,0-0.4,0c-0.1,0-0.1,0-0.2,0c0,0,0,0,0-0.1
			c0-0.5,0-0.8,0-1.2v0l0-0.5c0,0,0,0,0,0l0,0l0,0c0,0,0-0.1,0-0.1c0,0,0.1,0,0.1,0c0.2,0,0.3,0,0.3,0c0.1,0,0.1,0,0.1,0
			c0,0,0,0,0.1,0h0c0,0,0.1,0,0.2,0c0.1,0,0.5,0,1,0c0.4,0,0.5,0,0.6,0l0.4,0c0,0,0-0.1,0-0.4c0-0.3,0-0.7,0-1.2c0-0.2,0-0.5,0-0.7
			v0c0-0.7,0-1.3-0.1-2c0-0.1,0-0.1,0.1-0.2c0.1,0,0.1,0,0.2-0.1c0.1,0,0.1-0.1,0.2-0.1c0.2-0.1,0.4-0.2,0.6-0.2L255,48l0,0
			c0.4-0.2,0.8-0.3,1.2-0.5c0,0.2,0,0.4,0,0.7c0,0.2,0,0.4,0,0.6c0,0.6,0.1,3.5,0.1,3.8v0c0,0.1,0,0.4,0,0.4c0.1,0,0.6,0,0.6,0
			c0.2,0,0.3,0,0.5,0l0,0c0.1,0,0.2,0,0.2,0h0c0.2,0,0.4,0,0.5,0l0.2,0l0.2,0c0.2,0,0.4,0,0.7,0c0,0,0.2,0,0.2,0c0,0,0,0.1,0,0.2
			c0,0.1,0,0.3,0,0.4c0,0.3,0,0.5,0,0.7v0l0,0.1c0,0.2,0,0.4,0,0.6c0,0,0,0.1-0.1,0.2c-0.1,0-0.2,0-0.3,0c-0.1,0-0.3,0-0.4,0
			c-0.3,0-0.7,0-1.1,0c-0.3,0-1.1,0-1.4,0c0,0-0.1,1.9,0,2.4c0,0.2,0.1,1.7,0.1,2.2v0.5c0,0,0,0,0,0.1v1.1c0,0.1,0,0.2,0,0.4
			c0.1,0.8,0.7,1.5,1.5,1.6c0.1,0,0.3,0,0.4,0c0.6,0,1.2-0.2,1.7-0.7c0.1-0.1,0.1-0.1,0.2-0.2c0,0,0,0,0,0l0,0c0,0,0.1,0.1,0.1,0.1
			C260.5,63.2,260.9,63.6,261.3,64.1C261.2,64.1,261.3,64.1,261.3,64.1z"/>
		<path d="M274.7,63.1c-1.3,1.6-3.4,2.5-5.8,2.5h0c-0.1,0-0.1,0-0.2,0c-2.1,0-4.2-0.9-5.4-2.2c-1.1-1.1-1.7-2.9-1.5-4.7
			c0.2-1.7,0.9-3.2,2.1-4.3c1.3-1.1,2.9-1.7,5-1.8c0,0,0.1,0,0.1,0h0c2,0,4,0.7,5.1,1.8c1.2,1.2,2,2.9,2.1,4.6
			C276.2,60.5,275.6,61.9,274.7,63.1z M273.3,59.1c0-0.4-0.1-0.8-0.2-1.1c-0.3-1-1.2-2-2.2-2.5c-0.6-0.3-1.3-0.5-2-0.5
			c-0.9,0-1.9,0.3-2.6,0.8c-1.1,0.8-1.8,2-1.9,3.4c0,1.3,0.5,2.5,1.5,3.3c0.8,0.6,1.9,1,2.9,1c0.1,0,0.1,0,0.2,0
			c1.1,0,2.1-0.4,2.9-1.1C273.1,61.2,273.4,59.9,273.3,59.1z"/>
		<path d="M288.2,54.1c-0.3,0.3-0.6,0.7-0.9,1l0,0c-0.3,0.3-0.5,0.6-0.7,0.8l0,0c0,0-0.1,0.1-0.1,0.1c-0.3-0.3-0.9-0.8-2.3-0.9
			c-0.1,0-0.1,0-0.2,0c-0.4,0-0.7,0.1-1.2,0.2c-1.4,0.5-1.8,2.3-1.9,2.8c0,0.1,0,0.2-0.1,0.4c0,0,0,0,0,0.1c0,0.4,0,0.7,0,1.1
			c0,0.7,0,1.5,0,2.1c0,0.5,0,1.1,0,1.7v0.2c0,0.2,0,0.4,0,0.6c0,0.3,0,0.6,0,0.8v0c0,0,0,0.1,0,0.1c-0.1,0-2,0-2.6,0h0
			c-0.1,0-0.1,0-0.1,0c0,0,0-0.1,0-0.1c0,0,0,0,0,0c0-0.8,0-1.6,0-2.5c0-0.6,0-1.2,0-1.9c0-0.5,0-1.1,0-1.6l0-0.1v0l0,0v0
			c0-0.4,0-0.8,0-1.1c0-0.3,0-0.6,0-0.9v0c0-0.4,0-0.8,0-1.2v0c0-0.2,0-0.7,0-1.2c0-0.4,0-0.7,0-0.8v-0.1l0,0v-0.1
			c0-0.4,0-0.5,0.1-0.6c0,0,0.1,0,0.2,0c0,0,0,0,0.1,0h0.2c0.1,0,0.1,0,0.2,0c0.3,0,0.6,0,0.9,0c0.3,0,0.5,0,0.8,0h0.1
			c0,0,0,0,0.1,0h0c0,0,0.1,0,0.1,0c0,0,0,0,0.1,0c0.1,0,0.1,0,0.1,0c0,0,0,0,0,0c0,0,0,0.1,0,0.2c0,0,0,0.8,0,1.4c0,0,0,0,0,0.1
			c0,0.2,0.1,0.4,0.1,0.4c0-0.1,0.4-0.7,0.4-0.8c0.4-0.6,1-1,1.6-1.2c0.6-0.2,1.4-0.5,2.1-0.5c0.4,0,0.9,0.1,1.3,0.2
			C287.2,53.1,287.6,53.3,288.2,54.1z"/>
	</g>
</g>
</svg>
