<?xml version="1.0" encoding="utf-8"?>
<!-- Generator: Adobe Illustrator 24.1.0, SVG Export Plug-In . SVG Version: 6.00 Build 0)  -->
<svg version="1.1" id="Layer_1" xmlns="http://www.w3.org/2000/svg" xmlns:xlink="http://www.w3.org/1999/xlink" x="0px" y="0px"
	 viewBox="0 0 643.9 81" style="enable-background:new 0 0 643.9 81;" xml:space="preserve">
<style type="text/css">
	.st0{enable-background:new    ;}
</style>
<g class="st0">
	<path d="M62.2,30H51.9c-0.4-2.2-1.1-4.1-2.2-5.8c-1.1-1.7-2.4-3.1-4-4.3c-1.6-1.2-3.3-2-5.2-2.6c-1.9-0.6-4-0.9-6.1-0.9
		c-3.9,0-7.4,1-10.5,2.9c-3.1,2-5.5,4.8-7.3,8.6c-1.8,3.8-2.7,8.4-2.7,13.9c0,5.5,0.9,10.2,2.7,13.9c1.8,3.8,4.2,6.7,7.3,8.6
		c3.1,1.9,6.5,2.9,10.4,2.9c2.1,0,4.2-0.3,6.1-0.9c1.9-0.6,3.7-1.4,5.2-2.6c1.6-1.1,2.9-2.5,4-4.2c1.1-1.7,1.8-3.6,2.3-5.7l10.3,0
		c-0.6,3.3-1.6,6.4-3.2,9.2c-1.6,2.8-3.6,5.2-6,7.2s-5.3,3.6-8.4,4.7c-3.1,1.1-6.6,1.7-10.3,1.7c-5.9,0-11.1-1.4-15.7-4.2
		c-4.6-2.8-8.2-6.8-10.8-12C5.1,55.2,3.8,49,3.8,41.8c0-7.2,1.3-13.4,4-18.6c2.6-5.2,6.3-9.2,10.8-12c4.6-2.8,9.8-4.2,15.6-4.2
		c3.6,0,6.9,0.5,10.1,1.5c3.1,1,5.9,2.5,8.4,4.5c2.5,2,4.5,4.4,6.2,7.2C60.5,23.1,61.6,26.4,62.2,30z"/>
	<path d="M78.6,17.1c-1.7,0-3.2-0.6-4.4-1.7c-1.2-1.2-1.8-2.5-1.8-4.1c0-1.6,0.6-3,1.8-4.2c1.2-1.2,2.7-1.7,4.4-1.7S81.8,5.9,83,7
		c1.2,1.2,1.8,2.5,1.8,4.2c0,1.6-0.6,3-1.8,4.1C81.8,16.5,80.3,17.1,78.6,17.1z M73.6,75.6V24.9h9.9v50.7H73.6z"/>
	<path d="M111.5,76.8c-3.2,0-6.1-0.6-8.7-1.8c-2.6-1.2-4.7-2.9-6.2-5.2c-1.5-2.3-2.3-5.1-2.3-8.4c0-2.9,0.6-5.2,1.7-7.1
		c1.1-1.8,2.6-3.3,4.5-4.4c1.9-1.1,4-1.9,6.3-2.4c2.3-0.5,4.7-1,7.1-1.3c3-0.4,5.5-0.6,7.4-0.9s3.3-0.6,4.1-1.1
		c0.9-0.5,1.3-1.4,1.3-2.6v-0.2c0-2.9-0.8-5.1-2.4-6.7c-1.6-1.6-4-2.4-7.2-2.4c-3.3,0-5.9,0.7-7.8,2.2s-3.2,3.1-3.9,4.9l-9.3-2.1
		c1.1-3.1,2.7-5.6,4.8-7.5c2.1-1.9,4.6-3.3,7.3-4.2c2.8-0.9,5.7-1.3,8.8-1.3c2,0,4.2,0.2,6.5,0.7s4.4,1.3,6.4,2.6
		c2,1.3,3.6,3,4.9,5.4c1.3,2.3,1.9,5.3,1.9,9v33.7h-9.6v-6.9h-0.4c-0.6,1.3-1.6,2.5-2.9,3.8c-1.3,1.2-2.9,2.3-4.9,3.1
		C116.7,76.4,114.3,76.8,111.5,76.8z M113.6,68.8c2.7,0,5.1-0.5,7-1.6c1.9-1.1,3.4-2.5,4.5-4.2c1-1.8,1.5-3.6,1.5-5.6v-6.5
		c-0.4,0.4-1,0.7-2,1c-1,0.3-2.1,0.6-3.4,0.8c-1.3,0.2-2.5,0.4-3.7,0.6c-1.2,0.2-2.2,0.3-3,0.4c-1.9,0.2-3.7,0.6-5.2,1.2
		c-1.6,0.6-2.8,1.4-3.8,2.5c-0.9,1.1-1.4,2.5-1.4,4.2c0,2.4,0.9,4.3,2.7,5.5C108.5,68.2,110.8,68.8,113.6,68.8z"/>
	<path d="M159.5,45.5v30.1h-9.9V24.9h9.5v8.3h0.6c1.2-2.7,3-4.8,5.5-6.5c2.5-1.6,5.7-2.4,9.5-2.4c3.5,0,6.5,0.7,9.1,2.2
		c2.6,1.4,4.6,3.6,6,6.4c1.4,2.8,2.1,6.4,2.1,10.5v32.3h-9.9V44.6c0-3.7-1-6.6-2.9-8.6c-1.9-2.1-4.5-3.1-7.9-3.1
		c-2.3,0-4.3,0.5-6.1,1.5c-1.8,1-3.2,2.4-4.2,4.3C160.1,40.5,159.5,42.8,159.5,45.5z"/>
	<path d="M252.5,75.6h-21.9V8h22.6c6.6,0,12.3,1.3,17.1,4c4.8,2.7,8.4,6.6,10.9,11.6c2.5,5,3.8,11.1,3.8,18.1c0,7-1.3,13.1-3.8,18.2
		s-6.3,9-11.1,11.7C265.3,74.3,259.4,75.6,252.5,75.6z M240.9,66.7H252c5.2,0,9.4-1,12.8-2.9c3.4-1.9,6-4.8,7.7-8.5
		s2.5-8.2,2.5-13.6c0-5.3-0.8-9.8-2.5-13.5c-1.7-3.7-4.2-6.5-7.5-8.4c-3.3-1.9-7.5-2.9-12.4-2.9h-11.8V66.7z"/>
	<path d="M318.8,76.7c-5,0-9.3-1.1-12.9-3.2c-3.6-2.1-6.4-5.2-8.3-9.1c-1.9-3.9-2.9-8.5-2.9-13.8c0-5.2,1-9.8,2.9-13.7
		c1.9-4,4.7-7.1,8.2-9.3c3.5-2.2,7.6-3.3,12.3-3.3c2.9,0,5.6,0.5,8.3,1.4c2.7,0.9,5.1,2.4,7.2,4.5c2.1,2,3.8,4.7,5.1,7.9
		c1.2,3.2,1.8,7.1,1.8,11.7v3.5h-40.3v-7.4h30.6c0-2.6-0.5-4.9-1.6-6.9c-1.1-2-2.5-3.6-4.4-4.8c-1.9-1.2-4.1-1.8-6.7-1.8
		c-2.8,0-5.2,0.7-7.2,2c-2.1,1.4-3.6,3.1-4.8,5.3c-1.1,2.2-1.7,4.5-1.7,7.1v5.8c0,3.4,0.6,6.3,1.8,8.7c1.2,2.4,2.9,4.2,5,5.4
		s4.7,1.9,7.6,1.9c1.9,0,3.6-0.3,5.1-0.8c1.5-0.5,2.9-1.3,4-2.4c1.1-1.1,2-2.4,2.6-4L340,63c-0.7,2.8-2.1,5.2-4,7.2
		s-4.3,3.7-7.2,4.8C325.8,76.1,322.5,76.7,318.8,76.7z"/>
	<path d="M389.6,37.3l-8.9,1.6c-0.4-1.1-1-2.2-1.8-3.3c-0.8-1-1.9-1.9-3.3-2.5c-1.4-0.7-3.1-1-5.1-1c-2.8,0-5.1,0.6-7,1.9
		s-2.8,2.8-2.8,4.8c0,1.7,0.6,3.1,1.9,4.1s3.3,1.9,6.1,2.5l8.1,1.8c4.7,1.1,8.1,2.7,10.4,5c2.3,2.2,3.4,5.2,3.4,8.8
		c0,3-0.9,5.7-2.6,8.1c-1.8,2.4-4.2,4.2-7.3,5.6c-3.1,1.3-6.7,2-10.8,2c-5.7,0-10.3-1.2-13.9-3.6c-3.6-2.4-5.8-5.9-6.6-10.4l9.5-1.5
		c0.6,2.5,1.8,4.4,3.7,5.6c1.8,1.3,4.3,1.9,7.2,1.9c3.2,0,5.8-0.7,7.8-2c1.9-1.4,2.9-3,2.9-5c0-1.6-0.6-2.9-1.8-4
		c-1.2-1.1-3-1.9-5.4-2.4l-8.6-1.9c-4.7-1.1-8.2-2.8-10.5-5.2c-2.3-2.4-3.4-5.3-3.4-8.9c0-3,0.8-5.6,2.5-7.9c1.7-2.2,4-4,6.9-5.3
		c3-1.3,6.3-1.9,10.1-1.9c5.5,0,9.8,1.2,12.9,3.5C386.5,30.2,388.6,33.3,389.6,37.3z"/>
	<path d="M401.4,75.6V24.9h9.5v8.3h0.6c1.1-2.8,2.8-5,5.2-6.6c2.4-1.6,5.3-2.4,8.6-2.4c3.4,0,6.2,0.8,8.5,2.4s4,3.8,5.1,6.5h0.5
		c1.2-2.7,3.1-4.9,5.8-6.5c2.6-1.6,5.8-2.4,9.4-2.4c4.6,0,8.4,1.4,11.3,4.3c2.9,2.9,4.4,7.2,4.4,13v34h-9.9V42.5
		c0-3.4-0.9-5.9-2.8-7.5c-1.9-1.5-4.1-2.3-6.7-2.3c-3.2,0-5.7,1-7.5,3s-2.7,4.5-2.7,7.6v32.3H431V41.9c0-2.8-0.9-5-2.6-6.6
		c-1.7-1.7-4-2.5-6.7-2.5c-1.9,0-3.6,0.5-5.2,1.5c-1.6,1-2.8,2.3-3.8,4.1c-1,1.7-1.4,3.8-1.4,6v31.3H401.4z"/>
	<path d="M505,76.7c-4.8,0-8.9-1.1-12.5-3.3c-3.5-2.2-6.3-5.2-8.3-9.1c-2-3.9-2.9-8.5-2.9-13.7c0-5.3,1-9.9,2.9-13.8
		c2-3.9,4.7-7,8.3-9.2c3.5-2.2,7.7-3.3,12.5-3.3s8.9,1.1,12.5,3.3c3.5,2.2,6.3,5.2,8.3,9.2c2,3.9,2.9,8.5,2.9,13.8
		c0,5.2-1,9.8-2.9,13.7c-2,3.9-4.7,7-8.3,9.1C513.9,75.6,509.7,76.7,505,76.7z M505,68.4c3.1,0,5.6-0.8,7.7-2.4
		c2-1.6,3.5-3.8,4.5-6.5c1-2.7,1.5-5.7,1.5-8.9c0-3.2-0.5-6.2-1.5-8.9c-1-2.7-2.5-4.9-4.5-6.6c-2-1.7-4.6-2.5-7.7-2.5
		c-3.1,0-5.7,0.8-7.7,2.5s-3.5,3.8-4.5,6.6c-1,2.7-1.5,5.7-1.5,8.9c0,3.3,0.5,6.2,1.5,8.9s2.5,4.9,4.5,6.5
		C499.3,67.6,501.9,68.4,505,68.4z"/>
	<path d="M549.5,45.5v30.1h-9.9V24.9h9.5v8.3h0.6c1.2-2.7,3-4.8,5.5-6.5c2.5-1.6,5.7-2.4,9.5-2.4c3.5,0,6.5,0.7,9.1,2.2
		c2.6,1.4,4.6,3.6,6,6.4c1.4,2.8,2.1,6.4,2.1,10.5v32.3h-9.9V44.6c0-3.7-1-6.6-2.9-8.6c-1.9-2.1-4.5-3.1-7.9-3.1
		c-2.3,0-4.3,0.5-6.1,1.5c-1.8,1-3.2,2.4-4.2,4.3C550,40.5,549.5,42.8,549.5,45.5z"/>
	<path d="M614.1,76.6c-4.1,0-7.7-1.1-10.9-3.2c-3.2-2.1-5.7-5.1-7.5-9s-2.7-8.6-2.7-14.1s0.9-10.2,2.8-14.1c1.8-3.9,4.4-6.9,7.6-9
		c3.2-2.1,6.9-3.1,10.9-3.1c3.1,0,5.7,0.5,7.6,1.6c1.9,1,3.4,2.3,4.5,3.6c1.1,1.4,1.9,2.6,2.5,3.7h0.6V8h9.9v67.6h-9.6v-7.9h-0.8
		c-0.6,1.1-1.4,2.3-2.6,3.7c-1.1,1.4-2.6,2.6-4.6,3.6C619.7,76.1,617.2,76.6,614.1,76.6z M616.3,68.2c2.8,0,5.2-0.8,7.2-2.3
		c2-1.5,3.5-3.6,4.5-6.3c1-2.7,1.5-5.8,1.5-9.4c0-3.5-0.5-6.6-1.5-9.2c-1-2.6-2.5-4.7-4.5-6.2c-2-1.5-4.4-2.2-7.3-2.2
		c-3,0-5.4,0.8-7.4,2.3s-3.5,3.6-4.5,6.3c-1,2.7-1.5,5.7-1.5,9c0,3.4,0.5,6.4,1.5,9.1c1,2.7,2.5,4.8,4.5,6.4
		C610.9,67.4,613.4,68.2,616.3,68.2z"/>
</g>
</svg>
