<?xml version="1.0" encoding="utf-8"?>
<!-- Generator: Adobe Illustrator 24.1.0, SVG Export Plug-In . SVG Version: 6.00 Build 0)  -->
<svg version="1.1" id="Layer_1" xmlns="http://www.w3.org/2000/svg" xmlns:xlink="http://www.w3.org/1999/xlink" x="0px" y="0px"
	 viewBox="0 0 857.9 459.7" style="enable-background:new 0 0 857.9 459.7;" xml:space="preserve">
<style type="text/css">
	.st0{fill:#515D96;}
	.st1{fill:#64BDAD;}
	.st2{fill:#222121;}
	.st3{fill:#65BDAD;}
	.st4{fill:#201F1F;}
	.st5{fill:#1F1E1E;}
	.st6{fill:#212020;}
	.st7{fill:#1E1D1D;}
	.st8{fill:#566199;}
	.st9{fill:#232222;}
	.st10{fill:#5A659B;}
	.st11{fill:#FBFDFC;}
	.st12{fill:#F6F6F6;}
</style>
<path class="st0" d="M95.7,136.1c-1.2-3.3-0.2-6,0-8.8c0.5-6.1-1.5-8.4-6.5-8.1c-3.9,0.3-5.8,2.2-5.5,6.1c0.1,2,0.3,4,0.5,6
	c0.2,1.8,1.6,3.6,0.1,6.3c-2.4-2.5-3.5-5.2-4.1-8.1c-1.9-9.7,0.3-18.1,6.7-26c7.1-8.9,15.4-15.5,26-19.4c0.6-0.2,1-0.7,2.1-1.5
	c-4.7-0.5-8.2-2.1-11.6-4.2c-4.1-2.5-8,0-11.9,1.5c-2,0.8-3.5,2.6-6.5,2.6c1.5-3.7,3-7.1,4.2-10.6c2.4-6.9-0.7-12-7.9-12.9
	c-10.7-1.3-20.8,1.8-30.8,5c-5.4,1.7-5.4,1.7-5.4-4.2c0-11.4,0-11.4,11.4-11.4c24.3,0,48.6,0.1,73-0.1c4,0,5,1.2,5,5.1
	c-0.1,51.5-0.1,102.9,0,154.4c0,3.1-0.6,5.4-3.8,6.7c-1.8,0.7-3.7,1.8-5.1,3.1c-4.7,4.6-9.7,2.6-14.8,1c-2.1-0.6-2.3-2.3-2.3-3.9
	c-0.1-15.7-2.5-31.2-4.4-46.7c-0.7-5.5,0.4-11.3,1.3-16.9c1.6-9.6,2.5-19.1,2.1-28.8c-0.3-5.4,0.5-10.6,2.6-15.6
	c0.8-1.9,2.8-4.6-0.7-5.9c-3.3-1.2-6.6-0.4-7.8,3.2c-1,2.9-1.2,6.2-1.6,9.3c-0.7,6.3-1.4,12.6-2.1,18.9
	C97.8,133.6,97.9,135.2,95.7,136.1z"/>
<path class="st1" d="M583.4,351.6c0.9-0.6,0.5-1.5,0.6-2.2c0.3-7.3,3.7-10.9,10.7-10.9c6.9,0,10.4,3.7,10.4,11c0,15.8,0,31.7,0,47.5
	c0,4.9,0.3,9,6.3,10.8c4,1.1,3.8,5.5,3.5,9c-0.4,4.4-3,7.5-7.4,8.4c-12.2,2.3-19.5-0.4-23.9-14.4c-4.4,6.1-8.9,11.8-16.1,14.5
	c-18,7-38-1.2-46-19.9c-7.8-18.3-7-36.5,4.8-53.2c8.8-12.5,24.6-18,39.4-14.3c6.5,1.6,10.9,6.1,15.2,10.9
	C581.7,349.7,581.8,351.3,583.4,351.6z M584,382.3c0.5-6.4-1.6-12.1-5.2-17.3c-8.3-12.1-27.8-11.8-35.7,0.6
	c-5.9,9.3-6.3,19.1-2.4,29.1c3.1,7.8,8.9,12.7,17.6,13.6c8.6,0.9,15.8-1.8,20.9-9C582.8,394.3,584.3,388.5,584,382.3z"/>
<path class="st2" d="M464.1,178.5c4.2-4.8,8.3-8.1,12.8-10.8c11.1-6.7,26.3-5.9,35.1,1.8c6.5,5.7,8.1,13.4,8.2,21.3
	c0.3,20.8,0,41.6,0.1,62.5c0,3-1.1,3.7-3.8,3.5c-5-0.3-11.4,1.6-14.5-0.9c-3.3-2.6-1-9.4-1-14.3c-0.1-15.7,0-31.3,0-47
	c0.1-14.4-10.1-20.6-22.7-13.9c-5.4,2.9-9.5,7.3-13.3,11.9c-1.5,1.7-1.2,3.7-1.2,5.7c0,18-0.1,36,0.1,54c0,3.5-0.9,4.8-4.4,4.5
	c-4.8-0.4-10.9,1.9-14-0.9c-3.2-2.9-1-9.1-1-13.9c-0.1-34.1,0-68.3-0.1-102.4c0-3.8,0.9-5.4,4.8-5.5c3.6-0.1,7.3-0.7,10.9-1.5
	c3.3-0.8,3.9,0.4,3.9,3.4c-0.2,12.2-0.1,24.3-0.1,36.5C463.8,174.1,464,175.7,464.1,178.5z"/>
<path class="st1" d="M352.2,350.8c0.3-1,0.5-1.6,0.8-2.2c9.3-14.8,31.6-14.2,41.8-6.3c7.9,6.1,11.9,14.5,12.2,24.2
	c0.5,16.5,0.2,33,0.1,49.5c0,6-4.3,10.1-10.1,10.1c-6,0.1-10.7-4.2-10.8-10.1c-0.1-12.3,0-24.7,0-37c0-2.2,0.1-4.4-0.3-6.5
	c-2.2-11.5-8.9-17-19.7-16.2c-8.8,0.7-15.1,8.2-15.3,19.1c-0.3,13.2,0,26.3-0.1,39.5c-0.1,8.7-8,13.6-15.7,9.8
	c-4.7-2.3-5.7-6.6-5.6-11.4c0-21.5,0-43,0-64.5c0-9.8-0.1-19.7,0-29.5c0-4.9,1.3-9.4,6.5-11.2c7.9-2.8,14.7,1.8,14.8,10.2
	c0.2,8.8,0,17.7,0.1,26.5C350.9,346.5,350.3,348.2,352.2,350.8z"/>
<path class="st3" d="M762.1,351.3c1.8-2,2.6-2.8,3.2-3.7c9.7-13.8,31.7-13.3,42.1-4.5c7.3,6.1,11.2,14.6,11.4,24.2
	c0.4,16.2,0.2,32.3,0.1,48.5c0,6.1-4.6,10.4-10.5,10.4c-5.9,0-10.4-4.4-10.4-10.4c-0.1-12.3-0.1-24.7,0-37c0-4.3-0.8-8.3-2.4-12.1
	c-3-7.2-8-10.4-16.1-10.2c-7.6,0.1-12.3,3.5-15.1,10.8c-1.6,4.1-2.4,8.3-2.4,12.7c0.1,11.7,0.1,23.3,0,35c0,6.9-3.8,11.1-10,11.3
	c-6.5,0.2-11-4.3-11-11.5c0-32,0-64,0-96c0-7.1,3.9-11.1,10.6-11.2c6.6-0.1,10.3,4,10.4,11.3C762.2,329.1,762.1,339.4,762.1,351.3z"
	/>
<path class="st0" d="M45.2,190.4c0-20.3,0.1-40.6-0.1-61c0-3.2,0.8-4.6,4.2-5.3c6.5-1.3,13.2-1.9,18.9-6c1.8-1.3,2.8-0.2,2.6,1.8
	c-1,9.7,2.8,18.3,5.7,27.1c3.4,10.7,1.9,21.5,0.1,32.1c-1.9,10.9-3.3,21.7-3.3,32.7c0,3.4-1.1,5.1-4.3,6.1
	c-4.9,1.5-9.6,3.8-13.9,6.7c-4.3,2.9-4.1,6.8,0.3,9.5c20.1,12.8,40.1,8.7,59.9-0.7c4.1-1.9,15.7,0.3,18.3,4c1.5,2,0.7,4.5,0.7,6.8
	c0.1,12.3,0,12.3-12.1,12.3c-23.8,0-47.7-0.1-71.5,0.1c-4.7,0.1-5.7-1.4-5.7-5.9C45.3,230.8,45.2,210.6,45.2,190.4z"/>
<path class="st3" d="M471.2,387.4c-7.7,0-15.3,0.1-23-0.1c-3.7-0.1-4.6,1-3.5,4.6c4.4,14.6,21.4,21.1,35.8,13.5
	c2.2-1.2,4.3-2.6,6.4-3.8c4.6-2.5,9.4-1.9,12.2,1.6c3.3,4.1,3.2,9-0.8,13c-6.3,6.4-14.5,9.6-23.1,10.8c-9.6,1.4-19.2,1.3-28.3-3.2
	c-18.8-9.2-28.6-30.8-23.4-52.2c5.1-20.7,19.7-33.9,40.8-34.8c24.1-1,42.1,17.8,40.5,40.5c-0.5,7.3-3.1,9.8-10.4,9.9
	C486.8,387.5,479,387.4,471.2,387.4z M464.1,374.6c5,0,10,0,14.9,0c5.6,0,6.3-1.2,4.3-6.5c-3.1-8.3-10.6-12.4-20.9-11.6
	c-7.8,0.6-16,7.8-17.7,15.3c-0.6,2.5,0.4,2.9,2.4,2.9C452.8,374.6,458.4,374.6,464.1,374.6z"/>
<path class="st4" d="M791.1,212.6c-7.8,0-15.7,0.2-23.5-0.1c-4-0.2-5,1.4-4.6,4.9c1.2,10.8,3.3,21.2,14.6,25.8
	c7.4,3.1,15.4,2.4,23.1,0.5c2.3-0.5,4.6-1,6.7-2.1c4.1-2.1,5.7-0.9,7.4,3.3c1.9,4.6,0.5,6.2-3.7,8c-11.5,4.9-23.3,6.6-35.6,5
	c-15.2-2-25.5-10.4-30.2-24.8c-4.7-14.6-5-29.5-0.5-44.3c7.7-24.9,40.2-34.5,60.4-17.8c5.6,4.6,8.7,10.9,10.7,17.7
	c1.9,6.4,2.8,13,3.1,19.7c0.2,3.1-0.6,4.4-4.1,4.3C807.1,212.4,799.1,212.6,791.1,212.6z M780.5,201.2c4.8,0,9.7-0.1,14.5,0
	c2.4,0.1,3.2-0.9,3.1-3.2c-0.3-5.4-1.6-10.5-3.7-15.4c-2.4-5.7-6.6-8.8-12.6-8.9c-5.9-0.1-10.7,2.2-13.7,7.6
	c-2.6,4.7-4.1,9.8-4.8,15.1c-0.5,3.6,0.2,5.3,4.3,5C771.8,200.9,776.1,201.2,780.5,201.2z"/>
<path class="st1" d="M706.9,427.5c-16.7,0.1-26.3-8.8-26.8-25.5c-0.4-13.1-0.2-26.3-0.1-39.5c0-3.5-0.4-5.4-4.8-5.4
	c-6.1,0-9.8-3.8-9.9-9.1c-0.1-4.7,3.6-9.2,9.1-9.3c5-0.1,5.9-2.2,5.4-6.3c-0.2-1.8-0.1-3.7,0-5.5c0.1-6.8,3.9-10.7,10.4-10.7
	c6.5-0.1,10.5,3.9,10.6,10.5c0.3,11.5,0.3,11.6,11.7,11.7c3,0,6.1,0.2,8.6,2c3.1,2.2,4.2,5.6,3.5,9.3c-0.7,3.5-2.6,6-6.3,6.9
	c-4.6,1.2-9.3,0.5-13.9,0.6c-2.5,0-3.6,0.7-3.6,3.4c0.1,12.5-0.1,25,0.1,37.5c0.2,8.3,5.7,12,14,9.7c7.6-2,10.7-1.1,12.4,3.8
	c2,5.6-1,11.2-7.4,13.9C715.9,427.4,711.4,427.5,706.9,427.5z"/>
<path class="st4" d="M715,217.4c0,11.7-0.1,23.3,0.1,35c0.1,3.6-1,4.7-4.5,4.4c-4.8-0.4-10.9,1.9-14-0.9c-3.2-2.9-1-9.1-1-13.8
	c-0.1-20.1-0.1-40.3,0-60.4c0-3.5-0.9-4.9-4.4-4.4c-1.1,0.2-2.3,0-3.5,0c-7.7,0-7.6,0-6.3-7.5c0.5-2.9,1.5-4.2,4.8-4.1
	c9.1,0.1,9.1-0.1,9.4-9.3c0.1-2,0.3-4,0.4-6c1.8-19.6,12.4-28.8,32-28.2c2.2,0.1,4.3,0.3,6.5,0.4c8.1,0.5,8.1,0.6,6.1,8.5
	c-0.7,2.7-1.7,3.6-4.5,3c-1.8-0.4-3.6-0.5-5.5-0.5c-8.3,0.1-11.5,2.7-14,10.7c-1.9,6.2-1.7,12.5-1.7,18.8c0,2.3,1.1,2.8,3.1,2.7
	c4.7-0.1,9.3,0.1,14-0.1c2.7-0.1,4.2,0.5,3.3,3.6c-0.4,1.3-0.5,2.6-0.6,3.9c-0.2,3.1-1.6,4.3-4.8,4c-2.8-0.3-5.7,0.2-8.5-0.1
	c-5-0.6-6.9,0.8-6.6,6.3C715.3,194.8,715,206.1,715,217.4z"/>
<path class="st5" d="M571,195.4c0-18.8,0.1-37.6-0.1-56.4c0-3.4,0.9-4.6,4.3-5c4.3-0.4,8.6-1.2,12.7-2.4c3.7-1.1,4.1,0.2,4.1,3.4
	c-0.1,33.8,0.1,67.6-0.2,101.3c0,5.3,1.4,6.7,6.5,6.4c9.1-0.4,18.3,0,27.5-0.2c3-0.1,4,0.8,4,3.9c0.1,10.2,0.2,10.2-10.1,10.2
	c-14.6,0-29.3-0.2-43.9,0.1c-4,0.1-4.9-1.2-4.9-5C571.1,233,571,214.2,571,195.4z"/>
<path class="st6" d="M400.1,163.2c7.5,0.3,13.3,1.1,19,2.4c2.8,0.6,4.8,1.5,3.2,4.9c-0.1,0.3-0.1,0.7-0.2,1c-0.3,5.2-2.2,7.5-8,5.9
	c-5.1-1.4-10.5-1.6-15.9-0.9c-4.9,0.7-9.3,2.5-10.5,7.8c-1.3,5.3,2.3,8.3,6.2,10.9c3.9,2.6,8.3,4.3,12.6,6.1
	c6.2,2.6,12.2,5.5,16.4,11c13,17.2,2.6,41.1-19.8,45.2c-10.5,1.9-20.9,0.1-31.3-1.6c-2.5-0.4-3.5-1.6-2.8-4.1c0.2-0.6,0.3-1.3,0.4-2
	c1.3-7.2,1.3-7,8.4-5.6c5.9,1.1,11.8,1.7,17.9,0.8c6.6-1.1,11.4-5,12.5-10.6c1.2-6.2-0.6-9.7-7.2-13.9c-4.1-2.6-8.6-4.4-13-6.3
	c-5.2-2.3-10.4-4.7-14.1-9.2c-12.6-15.2-4.1-37.4,15.5-40.7C393.4,163.7,397.6,163.4,400.1,163.2z"/>
<path class="st5" d="M244.7,193.4c0,19.7-0.1,39.3,0.1,59c0,3.5-1,4.7-4.5,4.4c-4-0.3-8-0.4-12,0c-3.9,0.4-4.6-1.1-4.6-4.7
	c0.1-35.5,0.1-70.9,0.1-106.4c0-10.6,0-10.6,10.4-12.5c1.3-0.2,2.6-0.5,3.9-0.7c6.5-1.4,6.5-1.4,6.5,5.5
	C244.7,156.5,244.7,174.9,244.7,193.4z"/>
<path class="st3" d="M629.3,361.5c0-13.8,0-27.6,0-41.4c0-7.9,4.2-12.7,11-12.5c6.6,0.2,10.4,4.7,10.4,12.6c0,26,0,51.9,0,77.9
	c0,4.4,0.3,8.1,5.8,9.4c3.7,0.9,3.7,4.8,3.6,8c0,4.1-1.5,7.6-5.4,9.4c-8,3.7-18.3,0-22.1-7.9c-2.2-4.5-3.5-9.3-3.4-14.4
	C629.3,388.8,629.2,375.1,629.3,361.5C629.2,361.5,629.3,361.5,629.3,361.5z"/>
<path class="st4" d="M288.5,182.2c3.8-3.7,6.5-7.7,9.7-11.2c4.7-5.2,10.5-7.9,17.5-8.3c3.3-0.2,5.2,0.7,4.2,4.5
	c-0.3,1.3-0.5,2.6-0.7,3.9c-0.5,3.4,0,7.6-1.8,10.2c-1.7,2.5-6.1,1.2-9.3,1.9c-9.6,2-19.6,14.1-19.6,23.8c0,15.1-0.1,30.3,0.1,45.4
	c0,3.4-0.8,4.7-4.4,4.5c-3.8-0.3-7.7-0.2-11.5,0c-2.5,0.1-3.5-0.7-3.5-3.4c0.1-27.8,0.1-55.6,0-83.3c0-2.5,0.7-3.5,3.3-3.8
	c4.1-0.3,8.3-1,12.3-1.8c3-0.6,3.8,0.4,3.7,3.3C288.4,172.6,288.5,177.4,288.5,182.2z"/>
<path class="st5" d="M663.1,210.8c0,14-0.1,28,0.1,41.9c0,3-0.7,4.2-3.9,4c-4-0.3-8-0.2-12,0c-2.5,0.1-3.5-0.7-3.5-3.4
	c0.1-27.8,0.1-55.6,0-83.4c0-2.5,0.9-3.5,3.4-3.7c3.8-0.3,7.6-0.8,11.3-1.7c3.4-0.8,4.6,0,4.6,3.8
	C663,182.5,663.1,196.7,663.1,210.8z"/>
<path class="st7" d="M349.2,210.4c0,14-0.1,28,0.1,41.9c0,3.5-1,4.7-4.5,4.4c-3.8-0.3-7.7-0.2-11.5,0c-2.7,0.1-3.4-0.9-3.4-3.4
	c0.1-27.8,0.1-55.6,0-83.4c0-2.1,0.3-3.4,2.9-3.6c4.3-0.3,8.6-0.9,12.8-1.7c3.2-0.7,3.6,0.7,3.6,3.4
	C349.2,182.1,349.2,196.3,349.2,210.4z"/>
<path class="st8" d="M83.8,206.8c0.2-9.3,2.1-17.3,3.2-25.3c0.3-2.6,1.3-4.7,4.1-4.8c3.1-0.1,3.4,2.7,3.8,5
	c2,10.1,1.9,20.5,2.9,30.7c0.2,2.7-0.8,3.7-3.4,3.1c-0.6-0.1-1.3-0.1-2-0.2C83.4,214.8,83.4,214.8,83.8,206.8z"/>
<path class="st9" d="M653.4,148.9c-6.4-0.1-11.4-5.2-11.4-11.4c0.1-6.3,5.2-11.3,11.5-11.3c6.2,0,11.4,5.2,11.4,11.5
	C664.9,143.9,659.7,149,653.4,148.9z"/>
<path class="st9" d="M351.1,137.5c0,6.3-5.1,11.4-11.4,11.4c-6.3,0-11.5-5.1-11.5-11.4c0-6.2,5.2-11.4,11.5-11.4
	C346,126.1,351.1,131.2,351.1,137.5z"/>
<path class="st10" d="M45.2,107.3c0-5.8,6.7-11.2,12-10.1c3.6,0.7,4.9,5.4,2.2,8.9c-3,3.9-7.2,6-12,6.1
	C43.3,112.3,46.2,108.7,45.2,107.3z"/>
<path class="st10" d="M45.2,83.7c-0.9-4,0.3-6.9,5.8-7.2c5-0.2,7.2,2.5,5.3,7.1c-1.7,4-5.3,5.7-9.1,7c-1.7,0.6-2-0.3-2-1.7
	C45.2,87.4,45.2,85.9,45.2,83.7z"/>
<path class="st11" d="M584,382.3c0.3,6.2-1.2,11.9-4.8,17c-5.1,7.2-12.2,9.9-20.9,9c-8.6-0.9-14.5-5.8-17.6-13.6
	c-4-10-3.5-19.8,2.4-29.1c7.9-12.4,27.4-12.8,35.7-0.6C582.4,370.2,584.5,375.9,584,382.3z"/>
<path class="st11" d="M464.1,374.6c-5.6,0-11.3,0-16.9,0c-2,0-3-0.3-2.4-2.9c1.7-7.5,9.9-14.7,17.7-15.3
	c10.4-0.8,17.8,3.3,20.9,11.6c2,5.4,1.3,6.5-4.3,6.5C474,374.6,469,374.6,464.1,374.6z"/>
<path class="st12" d="M780.5,201.2c-4.3,0-8.7-0.3-13,0.1c-4.1,0.3-4.8-1.4-4.3-5c0.8-5.3,2.2-10.4,4.8-15.1c3-5.3,7.8-7.7,13.7-7.6
	c6.1,0.1,10.3,3.3,12.6,8.9c2.1,5,3.4,10.1,3.7,15.4c0.2,2.3-0.6,3.3-3.1,3.2C790.1,201.1,785.3,201.2,780.5,201.2z"/>
</svg>
